<?xml version="1.0" encoding="utf-8"?>
<!-- Generator: Adobe Illustrator 26.5.0, SVG Export Plug-In . SVG Version: 6.00 Build 0)  -->
<svg version="1.1" id="Layer_1" xmlns="http://www.w3.org/2000/svg" xmlns:xlink="http://www.w3.org/1999/xlink" x="0px" y="0px"
	 viewBox="0 0 269.8 94.6" style="enable-background:new 0 0 269.8 94.6;" xml:space="preserve">
<style type="text/css">
	.st0{fill:#FCD600;}
	.st1{fill:#FDD731;}
	.st2{fill:#FFFFFF;}
</style>
<path class="st0" d="M34.4,22.1h-11l5.3-19c0.1-0.5-0.5-0.7-0.7-0.3L9.4,27.3c-0.4,0.6,0,1.4,0.6,1.4h11l-5.3,19
	c-0.1,0.5,0.5,0.7,0.7,0.3l18.7-24.5C35.5,22.9,35.1,22.1,34.4,22.1z"/>
<path class="st1" d="M60.4,56.1c-9.8,0-15.2,5.5-15.2,16.9c0,11.3,5.4,16.9,15.2,16.9h5.2c7.6,0,10.5-4.6,10.5-10.5
	c0-5.9-2.9-9.6-8.9-9.6H59v5.1h7.5c2.8,0,4.1,1.6,4.1,4.3c0,2.8-1.4,4.8-4.7,4.8h-5.6c-6.6,0-9.4-3.2-9.4-11c0-7.8,2.9-11,9.4-11
	h13.9v-5.9H60.4z"/>
<path class="st1" d="M97.8,68.6c4.6,0,6.6,2.4,6.6,8.1c0,5.7-2,8.1-6.6,8.1h-4.5c-4.6,0-6.6-2.4-6.6-8.1c0-5.7,2-8.1,6.6-8.1H97.8z
	 M92.7,63.5c-7,0-11.5,4.3-11.5,13.2c0,8.9,4.4,13.2,11.5,13.2h5.5c7,0,11.5-4.3,11.5-13.2c0-8.9-4.5-13.2-11.5-13.2H92.7z"/>
<rect x="116.1" y="52" class="st1" width="5.3" height="37.9"/>
<path class="st1" d="M144.9,84.7h-5.2c-4.5,0-6.6-2.4-6.6-8.1c0-5.7,2.1-8.1,6.6-8.1h11.1v9.8C150.8,82.8,149.2,84.7,144.9,84.7z
	 M150.8,52v11.5h-11.6c-7,0-11.5,4.3-11.5,13.2c0,8.9,4.4,13.2,11.5,13.2h7.3c6.3,0,9.7-3.7,9.7-11.3V52H150.8z"/>
<path class="st2" d="M174.1,56.1c-7.9,0-11.3,3.8-11.3,9.2c0,3.7,1.6,6.3,4.8,7.6c-3.1,1.3-4.9,3.9-4.9,7.8c0,5.2,3.2,9.2,11.2,9.2
	H191V84h-17.1c-3.5,0-5.1-1.6-5.1-4.2c0-2.8,1.8-4.1,5.1-4.1h16.8v-5.4h-16.6c-3.4,0-5.2-1.2-5.2-4c0-2.6,1.6-4.2,5.1-4.2H191v-5.9
	H174.1z"/>
<rect x="198.4" y="52" class="st2" width="5.3" height="37.9"/>
<path class="st2" d="M215.9,72.2c0-2.1,1.1-3.6,4-3.6h8.5c2.6,0,3.8,1.3,3.8,3.3c0,2-1,3.1-3.9,3.1h-12.4V72.2z M219.9,63.5
	c-6.6,0-9.2,3.7-9.2,8.7v9c0,5,2.6,8.7,9.2,8.7h16.1v-5.1h-16.1c-2.9,0-4-1.6-4-3.6v-1.9h12.5c6.5,0,9-2.8,9-7.6
	c0-5.1-2.7-8.1-8.9-8.1H219.9z"/>
<path class="st2" d="M254.1,63.5c-7,0-11.5,4.3-11.5,13.2c0,8.9,4.4,13.2,11.5,13.2h13.6v-5.1h-13.1c-4.6,0-6.6-2.4-6.6-8.1
	c0-5.7,2-8.1,6.6-8.1h13.1v-5.1H254.1z"/>
<path class="st2" d="M13.6,60.3v-9.5c0-1.5-1.2-2.7-2.7-2.7s-2.7,1.2-2.7,2.7v9.5H13.6z M33.9,61.7H4.1c-0.7,0-1.4,0.6-1.4,1.4v2.7
	c0,0.7,0.6,1.4,1.4,1.4h1.4v2.7c0,6.5,4.6,12,10.8,13.3v8.4h5.4v-8.4c6.2-1.3,10.8-6.7,10.8-13.3v-2.7h1.4c0.7,0,1.4-0.6,1.4-1.4V63
	C35.2,62.3,34.6,61.7,33.9,61.7z M24.4,60.3v-9.5c0-1.5,1.2-2.7,2.7-2.7c1.5,0,2.7,1.2,2.7,2.7v9.5H24.4z"/>
</svg>
